<?xml version="1.0" encoding="UTF-8"?>
<svg version="1.1" xmlns="http://www.w3.org/2000/svg" width="16" height="16">
<path d="M0 0 C0.35474539 3.07446006 0.50436057 5.93706028 0 9 C-2.625 11.6875 -2.625 11.6875 -6 13 C-9.60814688 12.3061256 -11.40286494 11.59713506 -14 9 C-14.55086121 5.9441699 -14.5475377 3.0561543 -14 0 C-9.28410542 -4.58115473 -5.21238122 -2.67781953 0 0 Z " fill="#809FA7" transform="translate(15,3)"/>
<path d="M0 0 C0.66 0 1.32 0 2 0 C2 0.99 2 1.98 2 3 C2.99 2.67 3.98 2.34 5 2 C5.3125 4.8125 5.3125 4.8125 5 8 C2.875 10 2.875 10 0 11 C-5.2 9.8 -5.2 9.8 -7 8 C-7.04080783 6.00041636 -7.04254356 3.99954746 -7 2 C-5.68 3.32 -4.36 4.64 -3 6 C-2.67 5.01 -2.34 4.02 -2 3 C-1.34 2.34 -0.68 1.68 0 1 C0 0.67 0 0.34 0 0 Z " fill="#587B86" transform="translate(9,5)"/>
<path d="M0 0 C2.31 0.66 4.62 1.32 7 2 C5.48111881 3.74671337 4.23306099 4.89123821 2.125 5.875 C-0.9274204 6.05455414 -2.54699617 4.70347489 -5 3 C-4.34 2.67 -3.68 2.34 -3 2 C-0.875 2.9375 -0.875 2.9375 1 4 C0.67 2.68 0.34 1.36 0 0 Z " fill="#87989E" transform="translate(7,10)"/>
<path d="M0 0 C1.32 1.32 2.64 2.64 4 4 C4.33 3.34 4.66 2.68 5 2 C5.33 3.65 5.66 5.3 6 7 C4.02 6.34 2.04 5.68 0 5 C0 3.35 0 1.7 0 0 Z " fill="#5A707A" transform="translate(2,7)"/>
</svg>
