<?xml version="1.0" encoding="UTF-8"?>
<svg version="1.1" xmlns="http://www.w3.org/2000/svg" width="32" height="32">
<path d="M0 0 C2.63869459 1.26198437 5.21528858 2.5406207 7.75 4 C8.53117187 4.44601563 9.31234375 4.89203125 10.1171875 5.3515625 C10.98730469 5.85816406 10.98730469 5.85816406 11.875 6.375 C13.30001731 18.10500357 13.30001731 18.10500357 11.875 23.375 C8.45160738 27.16246771 4.79808082 29.09332202 -0.125 30.375 C-5.30455461 29.99181866 -9.67376331 28.47402268 -14.109375 25.8046875 C-17.87974869 21.25977968 -16.87389207 15.51185309 -16.4765625 9.8828125 C-16.36054688 8.72523437 -16.24453125 7.56765625 -16.125 6.375 C-14.09557728 5.1404847 -12.05593576 3.9388672 -10 2.75 C-9.43023437 2.399375 -8.86046875 2.04875 -8.2734375 1.6875 C-5.15860462 -0.08229141 -3.55484665 -0.71096933 0 0 Z " fill="#7D9CA4" transform="translate(18.125,0.625)"/>
<path d="M0 0 C3.14614445 1.44742748 6.07823528 3.14491129 9 5 C9 7.31 9 9.62 9 12 C8.01 12.33 7.02 12.66 6 13 C6.33 11.68 6.66 10.36 7 9 C6.34 9 5.68 9 5 9 C5 9.99 5 10.98 5 12 C4.34 12 3.68 12 3 12 C3.33 10.68 3.66 9.36 4 8 C3.360625 7.54625 2.72125 7.0925 2.0625 6.625 C0 5 0 5 -1 3 C-1.99 3 -2.98 3 -4 3 C-3.34 3.66 -2.68 4.32 -2 5 C-2.99 5.66 -3.98 6.32 -5 7 C-2.69 7 -0.38 7 2 7 C-0.55068845 9.35448165 -1.71017358 9.98327924 -5.25 10.1875 C-6.1575 10.125625 -7.065 10.06375 -8 10 C-7.34 10.33 -6.68 10.66 -6 11 C-6 11.66 -6 12.32 -6 13 C-7.32 13 -8.64 13 -10 13 C-10 10.69 -10 8.38 -10 6 C-11.32 6 -12.64 6 -14 6 C-13 3 -13 3 -10.375 1.3125 C-6.43048949 -0.22147631 -4.20451877 -0.57010424 0 0 Z " fill="#4E6772" transform="translate(20,3)"/>
<path d="M0 0 C0.66 0 1.32 0 2 0 C2 0.66 2 1.32 2 2 C3.32 2 4.64 2 6 2 C6.33 5.96 6.66 9.92 7 14 C6.34 14 5.68 14 5 14 C5 15.32 5 16.64 5 18 C2.83125748 17.49396008 1.00032373 17.00016187 -1 16 C-1.02685095 13.52076199 -1.04676547 11.0418116 -1.0625 8.5625 C-1.07506836 7.50192383 -1.07506836 7.50192383 -1.08789062 6.41992188 C-1.09653588 4.61306441 -1.05220011 2.80612397 -1 1 C-0.67 0.67 -0.34 0.34 0 0 Z " fill="#71ACB7" transform="translate(4,7)"/>
<path d="M0 0 C7.42857143 -0.28571429 7.42857143 -0.28571429 11 2 C10.01 2.66 9.02 3.32 8 4 C10.31 4 12.62 4 15 4 C12.44931155 6.35448165 11.28982642 6.98327924 7.75 7.1875 C6.8425 7.125625 5.935 7.06375 5 7 C5.66 7.33 6.32 7.66 7 8 C7 8.66 7 9.32 7 10 C5.68 10 4.36 10 3 10 C3 7.69 3 5.38 3 3 C1.68 3 0.36 3 -1 3 C-0.67 2.01 -0.34 1.02 0 0 Z " fill="#4B707D" transform="translate(7,6)"/>
<path d="M0 0 C0.94875 0.556875 1.8975 1.11375 2.875 1.6875 C3.65359375 2.10644531 4.4321875 2.52539062 5.234375 2.95703125 C7.4694721 4.16134599 9.67472886 5.42067722 11.875 6.6875 C11.875 10.6475 11.875 14.6075 11.875 18.6875 C9.78545968 14.50841936 9.70947381 13.88339427 10.875 9.6875 C10.215 9.3575 9.555 9.0275 8.875 8.6875 C7.53650329 7.69442179 6.20348691 6.69392948 4.875 5.6875 C1.13316125 3.19294083 -0.68743036 3.31143478 -5.125 3.6875 C-7.14026169 4.65637581 -9.14333966 5.6516321 -11.125 6.6875 C-12.115 6.3575 -13.105 6.0275 -14.125 5.6875 C-4.39754998 -0.439755 -4.39754998 -0.439755 0 0 Z " fill="#DBEAE9" transform="translate(18.125,0.3125)"/>
<path d="M0 0 C1.65 0.33 3.3 0.66 5 1 C4.67 1.66 4.34 2.32 4 3 C3.01 2.67 2.02 2.34 1 2 C1.99 3.485 1.99 3.485 3 5 C2.625 8.1875 2.625 8.1875 2 11 C2.99 11 3.98 11 5 11 C5 12.32 5 13.64 5 15 C2.83125748 14.49396008 1.00032373 14.00016187 -1 13 C-1.04241723 10.66705225 -1.04092937 8.33297433 -1 6 C-0.67 5.67 -0.34 5.34 0 5 C0.04063832 3.33382885 0.042721 1.66611905 0 0 Z " fill="#4B636E" transform="translate(4,10)"/>
<path d="M0 0 C2.36876998 0.8613709 3.41150577 1.87387019 5.0625 3.75 C5.7225 4.41 6.3825 5.07 7.0625 5.75 C6.4025 7.07 5.7425 8.39 5.0625 9.75 C5.7225 9.75 6.3825 9.75 7.0625 9.75 C6.7325 10.41 6.4025 11.07 6.0625 11.75 C5.4025 11.42 4.7425 11.09 4.0625 10.75 C4.0625 9.76 4.0625 8.77 4.0625 7.75 C3.4025 7.42 2.7425 7.09 2.0625 6.75 C2.7225 6.75 3.3825 6.75 4.0625 6.75 C4.0625 6.09 4.0625 5.43 4.0625 4.75 C2.391875 5.059375 2.391875 5.059375 0.6875 5.375 C-0.50875 5.49875 -1.705 5.6225 -2.9375 5.75 C-3.5975 5.09 -4.2575 4.43 -4.9375 3.75 C-4.2775 3.42 -3.6175 3.09 -2.9375 2.75 C-3.2675 2.09 -3.5975 1.43 -3.9375 0.75 C-1.9375 -0.25 -1.9375 -0.25 0 0 Z " fill="#92BFC4" transform="translate(17.9375,5.25)"/>
<path d="M0 0 C1.32 0 2.64 0 4 0 C3.67 3.63 3.34 7.26 3 11 C1.68 11 0.36 11 -1 11 C-0.67 7.37 -0.34 3.74 0 0 Z " fill="#6F868F" transform="translate(16,17)"/>
<path d="M0 0 C0.66 0 1.32 0 2 0 C2 0.99 2 1.98 2 3 C2.99 3 3.98 3 5 3 C4.67 6.3 4.34 9.6 4 13 C2.68 12.34 1.36 11.68 0 11 C0 7.37 0 3.74 0 0 Z " fill="#6F828B" transform="translate(10,16)"/>
<path d="M0 0 C0.66 0 1.32 0 2 0 C2.1875 2.375 2.1875 2.375 2 5 C-1 7 -1 7 -4 7 C-3.67 5.68 -3.34 4.36 -3 3 C-2.34 3 -1.68 3 -1 3 C-0.67 2.01 -0.34 1.02 0 0 Z " fill="#425462" transform="translate(27,18)"/>
<path d="M0 0 C0 1.32 0 2.64 0 4 C-0.9075 4.12375 -1.815 4.2475 -2.75 4.375 C-5.91207158 4.8251528 -5.91207158 4.8251528 -8.1875 6.125 C-10 7 -10 7 -13 6 C-11.21118264 4.99491199 -9.41885304 3.99607264 -7.625 3 C-6.62726562 2.443125 -5.62953125 1.88625 -4.6015625 1.3125 C-2 0 -2 0 0 0 Z " fill="#CCD7DA" transform="translate(17,0)"/>
<path d="M0 0 C1.32 0 2.64 0 4 0 C4 1.65 4 3.3 4 5 C3.01 5.33 2.02 5.66 1 6 C1.33 4.68 1.66 3.36 2 2 C1.34 2 0.68 2 0 2 C0 2.99 0 3.98 0 5 C-0.66 5 -1.32 5 -2 5 C-1.125 1.125 -1.125 1.125 0 0 Z " fill="#3A5362" transform="translate(25,10)"/>
<path d="M0 0 C3.37705625 0.53725895 6.696686 1.11064623 10 2 C7.08291076 3.98362069 5.87619096 3.9876191 2.25 3.625 C1.1775 3.41875 0.105 3.2125 -1 3 C-0.67 2.01 -0.34 1.02 0 0 Z " fill="#366373" transform="translate(12,9)"/>
<path d="M0 0 C0.66 0 1.32 0 2 0 C2.66666667 2 3.33333333 4 4 6 C3.01 6.99 2.02 7.98 1 9 C0.34 8.67 -0.32 8.34 -1 8 C-0.67 5.36 -0.34 2.72 0 0 Z " fill="#8E9B9E" transform="translate(25,12)"/>
<path d="M0 0 C0.66 0 1.32 0 2 0 C2 0.66 2 1.32 2 2 C3.32 2 4.64 2 6 2 C6 2.66 6 3.32 6 4 C3.03 3.505 3.03 3.505 0 3 C0 4.65 0 6.3 0 8 C-0.33 8 -0.66 8 -1 8 C-1.04241723 5.66705225 -1.04092937 3.33297433 -1 1 C-0.67 0.67 -0.34 0.34 0 0 Z " fill="#91B1B6" transform="translate(4,7)"/>
</svg>
