<?xml version="1.0" encoding="UTF-8"?>
<svg version="1.1" xmlns="http://www.w3.org/2000/svg" width="50" height="50">
<path d="M0 0 C3.91536347 1.44401478 7.35938285 3.29615576 10.9375 5.4375 C14.91658497 7.81468237 18.83668077 9.91834038 23 12 C23 20.25 23 28.5 23 37 C19.638125 39.02125 16.27625 41.0425 12.8125 43.125 C11.76167236 43.76969238 10.71084473 44.41438477 9.62817383 45.07861328 C8.78794678 45.57087402 7.94771973 46.06313477 7.08203125 46.5703125 C5.80162964 47.34012451 5.80162964 47.34012451 4.49536133 48.12548828 C2 49 2 49 -0.57275391 48.28271484 C-1.77424072 47.647771 -1.77424072 47.647771 -3 47 C-3.66153076 46.66291016 -4.32306152 46.32582031 -5.00463867 45.97851562 C-7.06757166 44.82240976 -9.12993508 43.66564311 -11.1875 42.5 C-11.91130859 42.09652344 -12.63511719 41.69304688 -13.38085938 41.27734375 C-14.07373047 40.88675781 -14.76660156 40.49617188 -15.48046875 40.09375 C-16.10848389 39.73990234 -16.73649902 39.38605469 -17.38354492 39.02148438 C-19 38 -19 38 -21 36 C-21.22705078 33.56982422 -21.22705078 33.56982422 -21.1953125 30.5546875 C-21.18886719 29.47832031 -21.18242187 28.40195312 -21.17578125 27.29296875 C-21.15902344 26.16503906 -21.14226563 25.03710938 -21.125 23.875 C-21.11597656 22.73933594 -21.10695313 21.60367187 -21.09765625 20.43359375 C-21.07403098 17.62218701 -21.04109013 14.81119702 -21 12 C-20.39937744 11.67201416 -19.79875488 11.34402832 -19.17993164 11.00610352 C-16.47313901 9.52669094 -13.76780439 8.04463214 -11.0625 6.5625 C-10.11697266 6.04623047 -9.17144531 5.52996094 -8.19726562 4.99804688 C-7.29814453 4.50498047 -6.39902344 4.01191406 -5.47265625 3.50390625 C-4.22367554 2.82050171 -4.22367554 2.82050171 -2.94946289 2.12329102 C-1.06093156 1.14748115 -1.06093156 1.14748115 0 0 Z " fill="#AFBAB9" transform="translate(24,0)"/>
<path d="M0 0 C0.33 0.66 0.66 1.32 1 2 C-0.65 2.33 -2.3 2.66 -4 3 C2.20706856 4.35779625 7.74762968 5.42911322 14 4 C14.99 4.33 15.98 4.66 17 5 C17 5.66 17 6.32 17 7 C15.02 7.66 13.04 8.32 11 9 C14.05270463 9.15811388 14.05270463 9.15811388 17 8 C17 9.98 17 11.96 17 14 C16.360625 14.268125 15.72125 14.53625 15.0625 14.8125 C12.66868314 15.88667752 12.66868314 15.88667752 12 19 C11.34 19 10.68 19 10 19 C10 19.66 10 20.32 10 21 C10.78375 21.144375 11.5675 21.28875 12.375 21.4375 C15 22 15 22 17 23 C17 25.31 17 27.62 17 30 C16.34 30.33 15.68 30.66 15 31 C14.67 29.68 14.34 28.36 14 27 C14 28.65 14 30.3 14 32 C13.195625 32.2475 12.39125 32.495 11.5625 32.75 C8.828919 33.72238859 8.828919 33.72238859 8.1875 36.125 C8.0946875 37.053125 8.0946875 37.053125 8 38 C3.3413689 36.30678438 -0.87603797 33.97769909 -5.1875 31.5625 C-5.91130859 31.16740234 -6.63511719 30.77230469 -7.38085938 30.36523438 C-8.07373047 29.97787109 -8.76660156 29.59050781 -9.48046875 29.19140625 C-10.42249146 28.66848999 -10.42249146 28.66848999 -11.38354492 28.13500977 C-13 27 -13 27 -15 24 C-14.5390625 21.95703125 -14.5390625 21.95703125 -13.625 19.8125 C-13.32851562 19.09707031 -13.03203125 18.38164062 -12.7265625 17.64453125 C-12.48679687 17.10183594 -12.24703125 16.55914063 -12 16 C-12.33 15.67 -12.66 15.34 -13 15 C-13.07205511 13.31391034 -13.08386068 11.62499341 -13.0625 9.9375 C-13.05347656 9.01839844 -13.04445313 8.09929688 -13.03515625 7.15234375 C-13.02355469 6.44207031 -13.01195312 5.73179688 -13 5 C-10.05409882 4.08727421 -9.25138913 3.90287238 -6.25 5.0625 C-4 7 -4 7 -3.6875 10.1875 C-3.8421875 11.5796875 -3.8421875 11.5796875 -4 13 C-4.66 13 -5.32 13 -6 13 C-6 13.66 -6 14.32 -6 15 C-5.01 14.67 -4.02 14.34 -3 14 C-2.38125 14.33 -1.7625 14.66 -1.125 15 C1.38512641 16.43862223 1.38512641 16.43862223 6 15 C6 20.94 6 26.88 6 33 C6.66 33 7.32 33 8 33 C8 27.06 8 21.12 8 15 C7.01 14.67 6.02 14.34 5 14 C5.33 13.01 5.66 12.02 6 11 C5.00097656 10.54109375 4.00195312 10.0821875 2.97265625 9.609375 C1.66891492 8.99033235 0.36554866 8.37049936 -0.9375 7.75 C-1.59685547 7.44964844 -2.25621094 7.14929687 -2.93554688 6.83984375 C-7.78929937 4.50008614 -7.78929937 4.50008614 -8.94140625 1.765625 C-8.96074219 1.18296875 -8.98007813 0.6003125 -9 0 C-5.88173308 -1.55913346 -3.32926126 -0.66585225 0 0 Z " fill="#A6B7B7" transform="translate(18,11)"/>
<path d="M0 0 C3.91536347 1.44401478 7.35938285 3.29615576 10.9375 5.4375 C14.91658497 7.81468237 18.83668077 9.91834038 23 12 C23 18.93 23 25.86 23 33 C22.34 33 21.68 33 21 33 C20.08732516 26.95352922 20.08732516 22.04647078 21 16 C20.34 15.67 19.68 15.34 19 15 C19.99 15 20.98 15 22 15 C21.18419851 12.81959539 21.18419851 12.81959539 19.00390625 12.18359375 C18.19824219 11.93738281 17.39257812 11.69117188 16.5625 11.4375 C12.12658228 10.06329114 12.12658228 10.06329114 10 9 C10.33 8.34 10.66 7.68 11 7 C8.36 6.34 5.72 5.68 3 5 C2.56613908 8.87797662 2.56613908 8.87797662 4.5 10.75 C4.995 11.1625 5.49 11.575 6 12 C3.36 11.67 0.72 11.34 -2 11 C-1.67 10.34 -1.34 9.68 -1 9 C-0.34 9 0.32 9 1 9 C0.34 7.68 -0.32 6.36 -1 5 C-3.64 5.66 -6.28 6.32 -9 7 C-9 7.66 -9 8.32 -9 9 C-8.01 9.33 -7.02 9.66 -6 10 C-8.95664519 11.4783226 -11.74229737 11.06032783 -15 11 C-13.69651992 14.91044024 -12.28330719 15.20030052 -8.6875 17.0625 C-7.72199219 17.56910156 -6.75648437 18.07570313 -5.76171875 18.59765625 C-3.51181853 19.74010912 -1.26014945 20.87797806 1 22 C0.34 22.99 -0.32 23.98 -1 25 C0.32 25.33 1.64 25.66 3 26 C2.67 31.94 2.34 37.88 2 44 C1.34 44 0.68 44 0 44 C0 38.06 0 32.12 0 26 C-1.65 26.33 -3.3 26.66 -5 27 C-5 28.65 -5 30.3 -5 32 C-5.33 32 -5.66 32 -6 32 C-6.33 30.35 -6.66 28.7 -7 27 C-8.65 26.67 -10.3 26.34 -12 26 C-12 25.34 -12 24.68 -12 24 C-11.34 24 -10.68 24 -10 24 C-10.10169161 21.05272465 -10.10169161 21.05272465 -11 18 C-13.88941691 16.32717969 -15.6591357 16 -19 16 C-18.88601335 17.62580966 -18.75844341 19.25067157 -18.625 20.875 C-18.55539063 21.77992187 -18.48578125 22.68484375 -18.4140625 23.6171875 C-18.20431868 26.17941903 -18.20431868 26.17941903 -16 28 C-16.99 28 -17.98 28 -19 28 C-19 29.98 -19 31.96 -19 34 C-19.99 34.495 -19.99 34.495 -21 35 C-21 27.41 -21 19.82 -21 12 C-11.0625 6.5625 -11.0625 6.5625 -7.92602539 4.84985352 C-7.11641357 4.40569092 -6.30680176 3.96152832 -5.47265625 3.50390625 C-4.22367554 2.82050171 -4.22367554 2.82050171 -2.94946289 2.12329102 C-1.06093156 1.14748115 -1.06093156 1.14748115 0 0 Z " fill="#B4C7CA" transform="translate(24,0)"/>
<path d="M0 0 C0.33 0.66 0.66 1.32 1 2 C-0.65 2.33 -2.3 2.66 -4 3 C2.20706856 4.35779625 7.74762968 5.42911322 14 4 C14.99 4.33 15.98 4.66 17 5 C17 5.66 17 6.32 17 7 C15.02 7.66 13.04 8.32 11 9 C14.05270463 9.15811388 14.05270463 9.15811388 17 8 C17 9.98 17 11.96 17 14 C16.360625 14.268125 15.72125 14.53625 15.0625 14.8125 C12.66868314 15.88667752 12.66868314 15.88667752 12 19 C11.34 19 10.68 19 10 19 C10 19.66 10 20.32 10 21 C10.78375 21.144375 11.5675 21.28875 12.375 21.4375 C15 22 15 22 17 23 C17 25.31 17 27.62 17 30 C16.34 30.33 15.68 30.66 15 31 C14.67 29.68 14.34 28.36 14 27 C14 28.65 14 30.3 14 32 C12.35 32.66 10.7 33.32 9 34 C9 34.66 9 35.32 9 36 C8.01 36 7.02 36 6 36 C6 35.01 6 34.02 6 33 C6.66 33 7.32 33 8 33 C8 27.06 8 21.12 8 15 C7.01 14.67 6.02 14.34 5 14 C5.33 13.01 5.66 12.02 6 11 C5.00097656 10.54109375 4.00195312 10.0821875 2.97265625 9.609375 C1.66891492 8.99033235 0.36554866 8.37049936 -0.9375 7.75 C-1.59685547 7.44964844 -2.25621094 7.14929687 -2.93554688 6.83984375 C-7.78929937 4.50008614 -7.78929937 4.50008614 -8.94140625 1.765625 C-8.96074219 1.18296875 -8.98007813 0.6003125 -9 0 C-5.88173308 -1.55913346 -3.32926126 -0.66585225 0 0 Z " fill="#579CAC" transform="translate(18,11)"/>
<path d="M0 0 C0.53625 0.391875 1.0725 0.78375 1.625 1.1875 C1.625 2.1775 1.625 3.1675 1.625 4.1875 C1.295 4.5175 0.965 4.8475 0.625 5.1875 C1.615 5.1875 2.605 5.1875 3.625 5.1875 C3.295 3.5375 2.965 1.8875 2.625 0.1875 C5.625 -0.8125 5.625 -0.8125 8.75 0.5 C11.625 2.1875 11.625 2.1875 12.625 4.1875 C14.26863134 4.90909424 15.93550386 5.58101421 17.625 6.1875 C17.4375 8.0625 17.4375 8.0625 16.625 10.1875 C12.65258023 12.57095186 10.02919264 11.99643334 5.625 11.1875 C3.62287771 11.50783957 1.62260305 11.84009077 -0.375 12.1875 C-2.375 11.8125 -2.375 11.8125 -4.375 11.1875 C-6.37288438 10.84171232 -8.37259451 10.50606451 -10.375 10.1875 C-10.045 9.5275 -9.715 8.8675 -9.375 8.1875 C-7.3125 7.5625 -7.3125 7.5625 -5.375 7.1875 C-6.1175 6.506875 -6.1175 6.506875 -6.875 5.8125 C-8.375 4.1875 -8.375 4.1875 -8.375 2.1875 C-2.95961538 -1.0125 -2.95961538 -1.0125 0 0 Z " fill="#91B1B7" transform="translate(23.375,4.8125)"/>
<path d="M0 0 C1.23169922 0.69996094 1.23169922 0.69996094 2.48828125 1.4140625 C3.44605469 1.94902344 4.40382813 2.48398438 5.390625 3.03515625 C6.89302734 3.93427734 6.89302734 3.93427734 8.42578125 4.8515625 C12.40486622 7.22874487 16.32496202 9.33240288 20.48828125 11.4140625 C20.48828125 18.3440625 20.48828125 25.2740625 20.48828125 32.4140625 C19.82828125 32.4140625 19.16828125 32.4140625 18.48828125 32.4140625 C17.57560641 26.36759172 17.57560641 21.46053328 18.48828125 15.4140625 C17.82828125 15.0840625 17.16828125 14.7540625 16.48828125 14.4140625 C17.47828125 14.4140625 18.46828125 14.4140625 19.48828125 14.4140625 C18.67247976 12.23365789 18.67247976 12.23365789 16.4921875 11.59765625 C15.68652344 11.35144531 14.88085938 11.10523438 14.05078125 10.8515625 C9.61486353 9.47735364 9.61486353 9.47735364 7.48828125 8.4140625 C7.81828125 7.7540625 8.14828125 7.0940625 8.48828125 6.4140625 C5.84828125 5.7540625 3.20828125 5.0940625 0.48828125 4.4140625 C0.05442033 8.29203912 0.05442033 8.29203912 1.98828125 10.1640625 C2.48328125 10.5765625 2.97828125 10.9890625 3.48828125 11.4140625 C0.84828125 11.0840625 -1.79171875 10.7540625 -4.51171875 10.4140625 C-4.18171875 9.7540625 -3.85171875 9.0940625 -3.51171875 8.4140625 C-2.85171875 8.4140625 -2.19171875 8.4140625 -1.51171875 8.4140625 C-2.17171875 7.0940625 -2.83171875 5.7740625 -3.51171875 4.4140625 C-6.15171875 5.0740625 -8.79171875 5.7340625 -11.51171875 6.4140625 C-11.51171875 7.0740625 -11.51171875 7.7340625 -11.51171875 8.4140625 C-10.52171875 8.7440625 -9.53171875 9.0740625 -8.51171875 9.4140625 C-11.58062062 10.94851344 -14.21266141 9.96390539 -17.51171875 9.4140625 C-14.9163328 6.52333953 -11.93888711 4.6232142 -8.63671875 2.6015625 C-7.60804687 1.95574219 -6.579375 1.30992187 -5.51953125 0.64453125 C-2.51171875 -0.5859375 -2.51171875 -0.5859375 0 0 Z " fill="#E7F1F1" transform="translate(26.51171875,0.5859375)"/>
<path d="M0 0 C0.928125 0.515625 1.85625 1.03125 2.8125 1.5625 C2.8125 3.5425 2.8125 5.5225 2.8125 7.5625 C2.1525 7.5625 1.4925 7.5625 0.8125 7.5625 C0.8125 10.2025 0.8125 12.8425 0.8125 15.5625 C-1.1675 16.5525 -1.1675 16.5525 -3.1875 17.5625 C-3.1875 18.2225 -3.1875 18.8825 -3.1875 19.5625 C-4.1775 19.5625 -5.1675 19.5625 -6.1875 19.5625 C-6.1875 12.89583333 -6.1875 6.22916667 -6.1875 -0.4375 C-3.1875 -1.4375 -3.1875 -1.4375 0 0 Z " fill="#B9C5C5" transform="translate(11.1875,16.4375)"/>
<path d="M0 0 C1.65 0.33 3.3 0.66 5 1 C4.67 1.99 4.34 2.98 4 4 C3.34 4 2.68 4 2 4 C2 4.66 2 5.32 2 6 C3.175625 6.2165625 3.175625 6.2165625 4.375 6.4375 C7 7 7 7 9 8 C9 10.31 9 12.62 9 15 C8.01 15.495 8.01 15.495 7 16 C6.67 14.68 6.34 13.36 6 12 C6 13.65 6 15.3 6 17 C4.35 17.66 2.7 18.32 1 19 C1 19.66 1 20.32 1 21 C0.01 21 -0.98 21 -2 21 C-2 20.01 -2 19.02 -2 18 C-1.34 18 -0.68 18 0 18 C0 12.06 0 6.12 0 0 Z " fill="#677882" transform="translate(26,26)"/>
<path d="M0 0 C0.66 0.33 1.32 0.66 2 1 C2 3.31 2 5.62 2 8 C2.66 8 3.32 8 4 8 C4 9.32 4 10.64 4 12 C-0.95 14.475 -0.95 14.475 -6 17 C-7.35439668 14.29120665 -7.06501451 11.99066732 -7 9 C-5.68 8.34 -4.36 7.68 -3 7 C-3.061875 6.21625 -3.12375 5.4325 -3.1875 4.625 C-3.125625 3.75875 -3.06375 2.8925 -3 2 C-2.01 1.34 -1.02 0.68 0 0 Z " fill="#93A6B3" transform="translate(43,25)"/>
<path d="M0 0 C0 5.94 0 11.88 0 18 C-0.66 18.33 -1.32 18.66 -2 19 C-2.02701408 16.89590361 -2.04640223 14.79170822 -2.0625 12.6875 C-2.07410156 11.51574219 -2.08570313 10.34398437 -2.09765625 9.13671875 C-2 6 -2 6 -1 3 C-1.99 3 -2.98 3 -4 3 C-4 7.95 -4 12.9 -4 18 C-4.66 17.34 -5.32 16.68 -6 16 C-6.99 16 -7.98 16 -9 16 C-9.29296875 9.9453125 -9.29296875 9.9453125 -9 8 C-8.01 7.34 -7.02 6.68 -6 6 C-5.63557767 4.33985384 -5.30027117 2.67293936 -5 1 C-3 0 -3 0 0 0 Z " fill="#2A4759" transform="translate(24,26)"/>
<path d="M0 0 C0.53625 0.391875 1.0725 0.78375 1.625 1.1875 C1.625 2.1775 1.625 3.1675 1.625 4.1875 C1.295 4.5175 0.965 4.8475 0.625 5.1875 C3.1 6.1775 3.1 6.1775 5.625 7.1875 C3.625 8.1875 3.625 8.1875 0.625 8.625 C-2.47861588 8.91465994 -2.47861588 8.91465994 -4.375 11.1875 C-7.5 10.8125 -7.5 10.8125 -10.375 10.1875 C-10.045 9.5275 -9.715 8.8675 -9.375 8.1875 C-7.3125 7.5625 -7.3125 7.5625 -5.375 7.1875 C-6.1175 6.506875 -6.1175 6.506875 -6.875 5.8125 C-8.375 4.1875 -8.375 4.1875 -8.375 2.1875 C-2.95961538 -1.0125 -2.95961538 -1.0125 0 0 Z " fill="#657D84" transform="translate(23.375,4.8125)"/>
<path d="M0 0 C2 1 2 1 2.625 2.8125 C3 5 3 5 3 9 C4.4166747 10.7511573 4.4166747 10.7511573 6 12 C3.36 11.67 0.72 11.34 -2 11 C-1.67 10.34 -1.34 9.68 -1 9 C-0.34 9 0.32 9 1 9 C0.34 7.68 -0.32 6.36 -1 5 C-3.64 5.66 -6.28 6.32 -9 7 C-9 7.66 -9 8.32 -9 9 C-8.01 9.33 -7.02 9.66 -6 10 C-9.06890187 11.53445094 -11.70094266 10.54984289 -15 10 C-12.38221206 7.0447272 -9.32416665 5.24167273 -5.9375 3.25 C-4.87402344 2.61578125 -3.81054688 1.9815625 -2.71484375 1.328125 C-1.81894531 0.88984375 -0.92304688 0.4515625 0 0 Z " fill="#DCE5E6" transform="translate(24,0)"/>
<path d="M0 0 C0.33 0.66 0.66 1.32 1 2 C-0.65 2.33 -2.3 2.66 -4 3 C-3.278125 3.12375 -2.55625 3.2475 -1.8125 3.375 C0.95721894 3.9904931 3.3970354 4.88444374 6 6 C6 6.66 6 7.32 6 8 C-0.11202536 7.72835443 -4.30871002 7.08984255 -9 3 C-9 2.01 -9 1.02 -9 0 C-5.88173308 -1.55913346 -3.32926126 -0.66585225 0 0 Z " fill="#4C7B8A" transform="translate(18,11)"/>
<path d="M0 0 C2.03144641 0.93446535 4.03533587 1.93224776 6 3 C6 4.98 6 6.96 6 9 C5.01 8.67 4.02 8.34 3 8 C3 6.68 3 5.36 3 4 C2.01 4 1.02 4 0 4 C0 4.99 0 5.98 0 7 C0.66 7 1.32 7 2 7 C2.33 8.32 2.66 9.64 3 11 C0.525 10.01 0.525 10.01 -2 9 C-2 6.36 -2 3.72 -2 1 C-1.34 0.67 -0.68 0.34 0 0 Z " fill="#214D5E" transform="translate(8,15)"/>
<path d="M0 0 C0.598125 0.20625 1.19625 0.4125 1.8125 0.625 C2.125 3.9375 2.125 3.9375 1.8125 7.625 C-0.6875 9.5625 -0.6875 9.5625 -3.1875 10.625 C-2.8575 9.305 -2.5275 7.985 -2.1875 6.625 C-1.5275 6.625 -0.8675 6.625 -0.1875 6.625 C-0.5175 5.965 -0.8475 5.305 -1.1875 4.625 C-2.1775 4.295 -3.1675 3.965 -4.1875 3.625 C-3.8575 4.945 -3.5275 6.265 -3.1875 7.625 C-4.1775 7.295 -5.1675 6.965 -6.1875 6.625 C-5.875 4.25 -5.875 4.25 -5.1875 1.625 C-2.1875 -0.375 -2.1875 -0.375 0 0 Z " fill="#243948" transform="translate(43.1875,15.375)"/>
<path d="M0 0 C2.475 0.99 2.475 0.99 5 2 C5 2.66 5 3.32 5 4 C3.906875 4.309375 2.81375 4.61875 1.6875 4.9375 C-0.55407994 5.58337897 -2.7869351 6.2623117 -5 7 C-5 8.98 -5 10.96 -5 13 C-4.01 13 -3.02 13 -2 13 C-2 13.66 -2 14.32 -2 15 C-3.32 14.67 -4.64 14.34 -6 14 C-6.33 12.35 -6.66 10.7 -7 9 C-8.65 9.66 -10.3 10.32 -12 11 C-12 10.34 -12 9.68 -12 9 C-11.21753906 8.60167969 -10.43507813 8.20335937 -9.62890625 7.79296875 C-8.61699219 7.26316406 -7.60507812 6.73335937 -6.5625 6.1875 C-5.55316406 5.66542969 -4.54382812 5.14335937 -3.50390625 4.60546875 C-0.71308782 3.18581516 -0.71308782 3.18581516 0 0 Z " fill="#B0C9CC" transform="translate(41,11)"/>
<path d="M0 0 C0.721875 0.391875 1.44375 0.78375 2.1875 1.1875 C1.8575 2.5075 1.5275 3.8275 1.1875 5.1875 C-0.4625 5.1875 -2.1125 5.1875 -3.8125 5.1875 C-3.8125 4.5275 -3.8125 3.8675 -3.8125 3.1875 C-5.1325 3.5175 -6.4525 3.8475 -7.8125 4.1875 C-7.8125 3.5275 -7.8125 2.8675 -7.8125 2.1875 C-4.86429158 -0.17106674 -3.72198415 -1.07523986 0 0 Z " fill="#324E5B" transform="translate(38.8125,9.8125)"/>
<path d="M0 0 C2.125 0.9375 2.125 0.9375 4 2 C3.67 3.65 3.34 5.3 3 7 C2.01 7.33 1.02 7.66 0 8 C-0.66 7.67 -1.32 7.34 -2 7 C-2 5.02 -2 3.04 -2 1 C-1.34 0.67 -0.68 0.34 0 0 Z " fill="#2D99AF" transform="translate(14,25)"/>
<path d="M0 0 C2.125 0.375 2.125 0.375 4 1 C4 2.65 4 4.3 4 6 C2.125 7.0625 2.125 7.0625 0 8 C-0.66 7.67 -1.32 7.34 -2 7 C-2.125 4.625 -2.125 4.625 -2 2 C-1.34 1.34 -0.68 0.68 0 0 Z " fill="#258DA2" transform="translate(35,25)"/>
<path d="M0 0 C0.66 0 1.32 0 2 0 C1.67 1.32 1.34 2.64 1 4 C1.66 4.33 2.32 4.66 3 5 C2.34 5 1.68 5 1 5 C1.11398665 6.62580966 1.24155659 8.25067157 1.375 9.875 C1.44460938 10.77992187 1.51421875 11.68484375 1.5859375 12.6171875 C1.79568132 15.17941903 1.79568132 15.17941903 4 17 C3.01 17 2.02 17 1 17 C1 18.98 1 20.96 1 23 C0.34 23.33 -0.32 23.66 -1 24 C-1.02887236 20.18751574 -1.04675492 16.3750593 -1.0625 12.5625 C-1.07087891 11.47388672 -1.07925781 10.38527344 -1.08789062 9.26367188 C-1.09111328 8.22919922 -1.09433594 7.19472656 -1.09765625 6.12890625 C-1.10289307 5.17056885 -1.10812988 4.21223145 -1.11352539 3.22485352 C-1 1 -1 1 0 0 Z " fill="#DFEBE8" transform="translate(4,11)"/>
<path d="M0 0 C0.99 0.495 0.99 0.495 2 1 C2.804375 0.79375 3.60875 0.5875 4.4375 0.375 C5.283125 0.25125 6.12875 0.1275 7 0 C8.8125 1.4375 8.8125 1.4375 10 3 C7 5 7 5 3.8125 4.625 C2.884375 4.41875 1.95625 4.2125 1 4 C0.67 2.68 0.34 1.36 0 0 Z " fill="#7EE1EA" transform="translate(20,12)"/>
<path d="M0 0 C1.32 0 2.64 0 4 0 C4.33 1.65 4.66 3.3 5 5 C3.02 5.66 1.04 6.32 -1 7 C-1.04254356 5.00045254 -1.04080783 2.99958364 -1 1 C-0.67 0.67 -0.34 0.34 0 0 Z " fill="#354351" transform="translate(37,33)"/>
<path d="M0 0 C4.75 1.875 4.75 1.875 7 3 C7 3.99 7 4.98 7 6 C5.1875 6.625 5.1875 6.625 3 7 C2.01 6.34 1.02 5.68 0 5 C-0.1875 2.375 -0.1875 2.375 0 0 Z " fill="#2C6677" transform="translate(15,19)"/>
<path d="M0 0 C2 1 2 1 2.625 2.8125 C3 5 3 5 3 9 C4.4166747 10.7511573 4.4166747 10.7511573 6 12 C3.36 11.67 0.72 11.34 -2 11 C-1.67 10.34 -1.34 9.68 -1 9 C-0.34 9 0.32 9 1 9 C0.01 7.02 -0.98 5.04 -2 3 C-1.34 2.01 -0.68 1.02 0 0 Z " fill="#BECDD0" transform="translate(24,0)"/>
<path d="M0 0 C1.32 0.33 2.64 0.66 4 1 C4 2.98 4 4.96 4 7 C2.02 6.34 0.04 5.68 -2 5 C-1.34 3.35 -0.68 1.7 0 0 Z " fill="#2D4555" transform="translate(10,33)"/>
<path d="M0 0 C0.66 0.33 1.32 0.66 2 1 C2 2.98 2 4.96 2 7 C0.68 7.33 -0.64 7.66 -2 8 C-2.5534764 5.92446352 -3 4.15634036 -3 2 C-2.01 1.34 -1.02 0.68 0 0 Z " fill="#3B4B57" transform="translate(43,25)"/>
<path d="M0 0 C0.33 0 0.66 0 1 0 C1 4.62 1 9.24 1 14 C0.34 14 -0.32 14 -1 14 C-2.44444444 4.43055556 -2.44444444 4.43055556 0 0 Z " fill="#D1DAD8" transform="translate(46,19)"/>
<path d="M0 0 C2.475 0.495 2.475 0.495 5 1 C4.67 1.99 4.34 2.98 4 4 C3.34 4 2.68 4 2 4 C2 6.64 2 9.28 2 12 C1.34 11.67 0.68 11.34 0 11 C0 7.37 0 3.74 0 0 Z " fill="#1F495C" transform="translate(26,26)"/>
<path d="M0 0 C1.32 0.33 2.64 0.66 4 1 C4 5 4 5 3 8 C2.01 8 1.02 8 0 8 C0 5.36 0 2.72 0 0 Z " fill="#405866" transform="translate(5,28)"/>
<path d="M0 0 C0.66 0.33 1.32 0.66 2 1 C0.75 3.9375 0.75 3.9375 -1 7 C-3.1875 7.875 -3.1875 7.875 -5 8 C-5 6.68 -5 5.36 -5 4 C-4.34 4 -3.68 4 -3 4 C-3 3.01 -3 2.02 -3 1 C-2.01 0.67 -1.02 0.34 0 0 Z " fill="#ABBBBE" transform="translate(33,25)"/>
<path d="M0 0 C1.65 0 3.3 0 5 0 C4.01 0.495 4.01 0.495 3 1 C3.9977758 3.99332739 4.7522025 4.94766315 7 7 C4.36 6.34 1.72 5.68 -1 5 C-0.67 3.35 -0.34 1.7 0 0 Z " fill="#ABCACE" transform="translate(6,10)"/>
<path d="M0 0 C0.33 1.32 0.66 2.64 1 4 C1.66 3.67 2.32 3.34 3 3 C3 2.34 3 1.68 3 1 C4.32 1.33 5.64 1.66 7 2 C7 2.66 7 3.32 7 4 C6.34 4 5.68 4 5 4 C4.34 5.32 3.68 6.64 3 8 C3 7.34 3 6.68 3 6 C2.01 6 1.02 6 0 6 C0 4.02 0 2.04 0 0 Z " fill="#819AA2" transform="translate(36,18)"/>
<path d="M0 0 C2.125 0.9375 2.125 0.9375 4 2 C4 2.99 4 3.98 4 5 C1.03 4.505 1.03 4.505 -2 4 C-2 3.01 -2 2.02 -2 1 C-1.34 0.67 -0.68 0.34 0 0 Z " fill="#385460" transform="translate(21,4)"/>
<path d="M0 0 C0.66 0.33 1.32 0.66 2 1 C2.125 7.75 2.125 7.75 1 10 C0.01 10 -0.98 10 -2 10 C-2 9.01 -2 8.02 -2 7 C-1.34 7 -0.68 7 0 7 C0 4.69 0 2.38 0 0 Z " fill="#416174" transform="translate(26,37)"/>
<path d="M0 0 C2.475 0.99 2.475 0.99 5 2 C5 4.31 5 6.62 5 9 C4.01 9.495 4.01 9.495 3 10 C3 7.69 3 5.38 3 3 C2.01 3 1.02 3 0 3 C0 2.01 0 1.02 0 0 Z " fill="#233343" transform="translate(30,32)"/>
<path d="M0 0 C2.475 0.99 2.475 0.99 5 2 C5 2.66 5 3.32 5 4 C3.02 4.33 1.04 4.66 -1 5 C-0.67 3.35 -0.34 1.7 0 0 Z " fill="#314F5C" transform="translate(27,4)"/>
<path d="M0 0 C0.33 0 0.66 0 1 0 C1 2.64 1 5.28 1 8 C2.98 8.495 2.98 8.495 5 9 C5 9.99 5 10.98 5 12 C2.525 11.01 2.525 11.01 0 10 C0 6.7 0 3.4 0 0 Z " fill="#828D91" transform="translate(5,16)"/>
<path d="M0 0 C2.0625 0.4375 2.0625 0.4375 4 1 C3.01 1 2.02 1 1 1 C1 1.99 1 2.98 1 4 C1.66 4 2.32 4 3 4 C3.33 5.32 3.66 6.64 4 8 C1.525 7.01 1.525 7.01 -1 6 C-1.042721 4.33388095 -1.04063832 2.66617115 -1 1 C-0.67 0.67 -0.34 0.34 0 0 Z " fill="#2B5A6B" transform="translate(7,18)"/>
<path d="M0 0 C0.99 0.33 1.98 0.66 3 1 C3 3.31 3 5.62 3 8 C2.01 8 1.02 8 0 8 C0 5.36 0 2.72 0 0 Z " fill="#485D6A" transform="translate(15,34)"/>
<path d="M0 0 C0 1.65 0 3.3 0 5 C-1.98 5 -3.96 5 -6 5 C-5 2 -5 2 -3 0.8125 C-1 0 -1 0 0 0 Z " fill="#1E4251" transform="translate(35,19)"/>
<path d="M0 0 C0 0.66 0 1.32 0 2 C-4.455 2.495 -4.455 2.495 -9 3 C-8.67 2.01 -8.34 1.02 -8 0 C-5.13822943 -1.43088528 -3.06624227 -0.59991697 0 0 Z " fill="#26414F" transform="translate(35,16)"/>
<path d="M0 0 C0.99 0.33 1.98 0.66 3 1 C2.67 1.99 2.34 2.98 2 4 C-0.375 4.625 -0.375 4.625 -3 5 C-3.66 4.34 -4.32 3.68 -5 3 C-3.35 2.67 -1.7 2.34 0 2 C0 1.34 0 0.68 0 0 Z " fill="#6D7E84" transform="translate(32,6)"/>
<path d="M0 0 C0.33 0.99 0.66 1.98 1 3 C-1.375 3.625 -1.375 3.625 -4 4 C-4.66 3.34 -5.32 2.68 -6 2 C-4.02 1.34 -2.04 0.68 0 0 Z " fill="#7E9FA8" transform="translate(19,12)"/>
<path d="M0 0 C2.3431213 0.25561323 4.67843403 0.59270772 7 1 C7.33 1.66 7.66 2.32 8 3 C5.03 3 2.06 3 -1 3 C-0.67 2.01 -0.34 1.02 0 0 Z " fill="#243843" transform="translate(11,10)"/>
<path d="M0 0 C0.99 0 1.98 0 3 0 C2.67 3.3 2.34 6.6 2 10 C1.67 10 1.34 10 1 10 C0.67 6.7 0.34 3.4 0 0 Z " fill="#A6B4B6" transform="translate(20,29)"/>
<path d="M0 0 C0.99 0.33 1.98 0.66 3 1 C2.75 2.875 2.75 2.875 2 5 C-0.0625 6.25 -0.0625 6.25 -2 7 C-1.67 5.68 -1.34 4.36 -1 3 C-0.34 3 0.32 3 1 3 C0.67 2.01 0.34 1.02 0 0 Z " fill="#2C4758" transform="translate(42,19)"/>
<path d="M0 0 C2.475 0.99 2.475 0.99 5 2 C5 2.66 5 3.32 5 4 C2.36 3.67 -0.28 3.34 -3 3 C-2.01 2.01 -1.02 1.02 0 0 Z " fill="#204555" transform="translate(19,15)"/>
</svg>
