<?xml version="1.0" encoding="UTF-8"?>
<svg version="1.1" xmlns="http://www.w3.org/2000/svg" width="64" height="64">
<path d="M0 0 C2.68935918 0.80212053 4.85492625 1.82619753 7.29296875 3.21069336 C8.15664063 3.69473633 9.0203125 4.1787793 9.91015625 4.67749023 C10.79960938 5.18473633 11.6890625 5.69198242 12.60546875 6.21459961 C14.3748076 7.21594283 16.14559783 8.21472672 17.91796875 9.21069336 C19.08779297 9.87669556 19.08779297 9.87669556 20.28125 10.55615234 C22.64234935 11.79647355 25.12916957 12.78657994 27.60546875 13.77709961 C27.60546875 24.33709961 27.60546875 34.89709961 27.60546875 45.77709961 C16.29296875 52.15209961 16.29296875 52.15209961 12.73706055 54.15356445 C11.81062744 54.67644043 10.88419434 55.19931641 9.9296875 55.73803711 C8.98182373 56.27219238 8.03395996 56.80634766 7.05737305 57.35668945 C5.20102803 58.43208678 3.39050196 59.58707747 1.60546875 60.77709961 C-2.43132232 60.44420305 -5.39978925 58.86270129 -8.87890625 56.87084961 C-10.40451172 56.00266602 -10.40451172 56.00266602 -11.9609375 55.11694336 C-13.01152344 54.50979492 -14.06210937 53.90264648 -15.14453125 53.27709961 C-16.74361328 52.36637695 -16.74361328 52.36637695 -18.375 51.43725586 C-26.22353981 46.94809105 -26.22353981 46.94809105 -27.39453125 45.77709961 C-27.48292795 43.40141441 -27.5098343 41.05501287 -27.4921875 38.67944336 C-27.49077255 37.97058487 -27.4893576 37.26172638 -27.48789978 36.53138733 C-27.48228568 34.25908249 -27.46973088 31.98687486 -27.45703125 29.71459961 C-27.45201806 28.17749165 -27.44745484 26.64038216 -27.44335938 25.10327148 C-27.43231167 21.32784319 -27.41503766 17.5524879 -27.39453125 13.77709961 C-26.74379639 13.42405762 -26.09306152 13.07101562 -25.42260742 12.70727539 C-22.47494809 11.10701974 -19.52847861 9.5045856 -16.58203125 7.90209961 C-15.04579102 7.0687207 -15.04579102 7.0687207 -13.47851562 6.21850586 C-12.49560547 5.68354492 -11.51269531 5.14858398 -10.5 4.59741211 C-9.59403076 4.10515137 -8.68806152 3.61289063 -7.75463867 3.10571289 C-1.92022355 -0.17874838 -1.92022355 -0.17874838 0 0 Z " fill="#E1EBE8" transform="translate(32.39453125,1.222900390625)"/>
<path d="M0 0 C2.875 1.5625 2.875 1.5625 5 3 C4.84765625 5.29296875 4.84765625 5.29296875 4 8 C1.49609375 9.80078125 1.49609375 9.80078125 -1.5625 11.3125 C-2.57441406 11.82425781 -3.58632813 12.33601563 -4.62890625 12.86328125 C-5.41136719 13.23839844 -6.19382812 13.61351562 -7 14 C-5.68 13.67 -4.36 13.34 -3 13 C-2.8125 16.375 -2.8125 16.375 -3 20 C-6.5486135 22.36574234 -7.5764525 22.10865265 -11.6875 21.625 C-13.17830078 21.45871094 -13.17830078 21.45871094 -14.69921875 21.2890625 C-15.45847656 21.19367187 -16.21773437 21.09828125 -17 21 C-16.34 21.66 -15.68 22.32 -15 23 C-14.360625 22.835 -13.72125 22.67 -13.0625 22.5 C-12.0415625 22.2525 -12.0415625 22.2525 -11 22 C-8 24 -8 24 -7 27 C-6.9071875 26.071875 -6.9071875 26.071875 -6.8125 25.125 C-6 23 -6 23 -3.5625 21.6875 C-1 21 -1 21 1 22 C1 21.34 1 20.68 1 20 C0.01 19.67 -0.98 19.34 -2 19 C-2 16.69 -2 14.38 -2 12 C0.64 10.68 3.28 9.36 6 8 C6.99 8.66 7.98 9.32 9 10 C9.2578125 12.12890625 9.2578125 12.12890625 9.125 14.5625 C9.05405352 16.04055167 9.00579155 17.52025793 9 19 C9.33 19.33 9.66 19.66 10 20 C10.20798937 22.43644696 10.32444728 24.80968226 10.375 27.25 C10.41238281 27.91902344 10.44976562 28.58804688 10.48828125 29.27734375 C10.5517553 32.86715409 10.18420134 34.7499862 8.04296875 37.65625 C4.20084875 40.61552086 0.19987524 42.95196396 -4.0625 45.25 C-4.86494141 45.69601563 -5.66738281 46.14203125 -6.49414062 46.6015625 C-13.39369887 50.38057365 -13.39369887 50.38057365 -17 51 C-19.56336313 49.96319255 -21.65067673 48.49091669 -24 47 C-22.02 46.505 -22.02 46.505 -20 46 C-19.9190687 43.39521117 -19.85954566 40.79293347 -19.8125 38.1875 C-19.78736328 37.44951172 -19.76222656 36.71152344 -19.73632812 35.95117188 C-19.59242347 31.72952874 -19.59242347 31.72952874 -21.48828125 28.11328125 C-22.23658203 27.56220703 -22.23658203 27.56220703 -23 27 C-23.12375 26.34 -23.2475 25.68 -23.375 25 C-23.58125 24.34 -23.7875 23.68 -24 23 C-25.2684375 22.3503125 -25.2684375 22.3503125 -26.5625 21.6875 C-27.366875 21.130625 -28.17125 20.57375 -29 20 C-29.40565724 16.21386577 -29.20307987 13.60923962 -28 10 C-27.01 9.67 -26.02 9.34 -25 9 C-25 8.34 -25 7.68 -25 7 C-27.31 6.01 -29.62 5.02 -32 4 C-32 4.66 -32 5.32 -32 6 C-33.32 6.33 -34.64 6.66 -36 7 C-36 5.68 -36 4.36 -36 3 C-33 1 -33 1 -30.625 1.1875 C-27.6955588 2.0942318 -25.48598689 3.20456502 -23 5 C-22.67 5.99 -22.34 6.98 -22 8 C-18.78377123 10.0213863 -18.78377123 10.0213863 -15 11 C-12.07201057 9.84587664 -12.07201057 9.84587664 -10 8 C-10.33 6.02 -10.66 4.04 -11 2 C-6.96815556 -0.9645915 -4.81315994 -1.40383832 0 0 Z " fill="#ACB7B7" transform="translate(48,11)"/>
<path d="M0 0 C2.68935918 0.80212053 4.85492625 1.82619753 7.29296875 3.21069336 C8.15664063 3.69473633 9.0203125 4.1787793 9.91015625 4.67749023 C10.79960938 5.18473633 11.6890625 5.69198242 12.60546875 6.21459961 C14.3748076 7.21594283 16.14559783 8.21472672 17.91796875 9.21069336 C19.08779297 9.87669556 19.08779297 9.87669556 20.28125 10.55615234 C22.64234935 11.79647355 25.12916957 12.78657994 27.60546875 13.77709961 C27.60546875 24.33709961 27.60546875 34.89709961 27.60546875 45.77709961 C26.28546875 46.43709961 24.96546875 47.09709961 23.60546875 47.77709961 C23.27546875 47.11709961 22.94546875 46.45709961 22.60546875 45.77709961 C23.26546875 45.44709961 23.92546875 45.11709961 24.60546875 44.77709961 C24.60546875 40.15709961 24.60546875 35.53709961 24.60546875 30.77709961 C23.94546875 30.44709961 23.28546875 30.11709961 22.60546875 29.77709961 C23.10046875 29.28209961 23.10046875 29.28209961 23.60546875 28.77709961 C23.8373974 27.26240512 24.01762113 25.73955399 24.16796875 24.21459961 C24.25175781 23.38831055 24.33554687 22.56202148 24.421875 21.71069336 C24.51275391 20.75356445 24.51275391 20.75356445 24.60546875 19.77709961 C22.7358002 19.13481716 22.7358002 19.13481716 20.60546875 18.77709961 C17.9815974 20.16802853 17.9815974 20.16802853 15.60546875 21.77709961 C14.94546875 21.77709961 14.28546875 21.77709961 13.60546875 21.77709961 C13.86108198 24.12022091 14.19817647 26.45553364 14.60546875 28.77709961 C15.26546875 29.10709961 15.92546875 29.43709961 16.60546875 29.77709961 C16.60546875 30.43709961 16.60546875 31.09709961 16.60546875 31.77709961 C13.14046875 32.27209961 13.14046875 32.27209961 9.60546875 32.77709961 C9.27546875 34.42709961 8.94546875 36.07709961 8.60546875 37.77709961 C8.26515625 36.81803711 8.26515625 36.81803711 7.91796875 35.83959961 C7.48484375 35.15897461 7.05171875 34.47834961 6.60546875 33.77709961 C4.95546875 33.44709961 3.30546875 33.11709961 1.60546875 32.77709961 C1.27546875 38.05709961 0.94546875 43.33709961 0.60546875 48.77709961 C0.27546875 48.77709961 -0.05453125 48.77709961 -0.39453125 48.77709961 C-0.72453125 42.83709961 -1.05453125 36.89709961 -1.39453125 30.77709961 C-0.07453125 30.77709961 1.24546875 30.77709961 2.60546875 30.77709961 C2.93546875 29.45709961 3.26546875 28.13709961 3.60546875 26.77709961 C3.60546875 28.09709961 3.60546875 29.41709961 3.60546875 30.77709961 C7.74640573 30.9868052 7.74640573 30.9868052 11.60546875 29.77709961 C11.60546875 27.79709961 11.60546875 25.81709961 11.60546875 23.77709961 C10.28546875 24.10709961 8.96546875 24.43709961 7.60546875 24.77709961 C10.63049802 21.24789879 13.69120071 19.65056165 17.8984375 17.90209961 C19.80670609 16.89264225 19.80670609 16.89264225 20.34375 14.65209961 C20.43011719 14.03334961 20.51648437 13.41459961 20.60546875 12.77709961 C16.95492238 11.16656445 13.60547843 10.03241938 9.60546875 9.77709961 C7.2425619 11.08845373 7.2425619 11.08845373 5.60546875 12.77709961 C6.10046875 15.25209961 6.10046875 15.25209961 6.60546875 17.77709961 C5.80109375 18.16897461 4.99671875 18.56084961 4.16796875 18.96459961 C1.37482137 20.54658152 1.37482137 20.54658152 0.79296875 23.46459961 C0.70015625 24.60928711 0.70015625 24.60928711 0.60546875 25.77709961 C0.27546875 25.77709961 -0.05453125 25.77709961 -0.39453125 25.77709961 C-0.39453125 24.12709961 -0.39453125 22.47709961 -0.39453125 20.77709961 C-1.34328125 20.52959961 -2.29203125 20.28209961 -3.26953125 20.02709961 C-6.87080444 18.58659033 -6.88633428 18.09513293 -8.39453125 14.77709961 C-10.74762998 12.77004481 -12.3612666 11.75792958 -15.5 11.81616211 C-17.47567627 12.06093616 -19.43747297 12.41222434 -21.39453125 12.77709961 C-21.39453125 13.43709961 -21.39453125 14.09709961 -21.39453125 14.77709961 C-23.04453125 14.77709961 -24.69453125 14.77709961 -26.39453125 14.77709961 C-26.39453125 15.76709961 -26.39453125 16.75709961 -26.39453125 17.77709961 C-25.07453125 18.10709961 -23.75453125 18.43709961 -22.39453125 18.77709961 C-23.38453125 18.77709961 -24.37453125 18.77709961 -25.39453125 18.77709961 C-25.06453125 22.40709961 -24.73453125 26.03709961 -24.39453125 29.77709961 C-25.38453125 30.43709961 -26.37453125 31.09709961 -27.39453125 31.77709961 C-27.39453125 25.83709961 -27.39453125 19.89709961 -27.39453125 13.77709961 C-25.84121094 12.93405273 -24.28789062 12.09100586 -22.6875 11.22241211 C-20.65230346 10.11571537 -18.61714941 9.00894048 -16.58203125 7.90209961 C-15.04579102 7.0687207 -15.04579102 7.0687207 -13.47851562 6.21850586 C-12.49560547 5.68354492 -11.51269531 5.14858398 -10.5 4.59741211 C-9.59403076 4.10515137 -8.68806152 3.61289063 -7.75463867 3.10571289 C-1.92022355 -0.17874838 -1.92022355 -0.17874838 0 0 Z " fill="#DFE9E9" transform="translate(32.39453125,1.222900390625)"/>
<path d="M0 0 C2.875 1.5625 2.875 1.5625 5 3 C4.84765625 5.29296875 4.84765625 5.29296875 4 8 C1.49609375 9.80078125 1.49609375 9.80078125 -1.5625 11.3125 C-2.57441406 11.82425781 -3.58632813 12.33601563 -4.62890625 12.86328125 C-5.41136719 13.23839844 -6.19382812 13.61351562 -7 14 C-5.68 13.67 -4.36 13.34 -3 13 C-2.8125 16.375 -2.8125 16.375 -3 20 C-6 22 -6 22 -17 21 C-17 28.92 -17 36.84 -17 45 C-17.66 45 -18.32 45 -19 45 C-19.33 45.66 -19.66 46.32 -20 47 C-19.96519531 45.80761719 -19.93039063 44.61523438 -19.89453125 43.38671875 C-19.86639247 41.82032658 -19.8390924 40.25391919 -19.8125 38.6875 C-19.78736328 37.90181641 -19.76222656 37.11613281 -19.73632812 36.30664062 C-19.72666016 35.54931641 -19.71699219 34.79199219 -19.70703125 34.01171875 C-19.6913208 33.31522217 -19.67561035 32.61872559 -19.65942383 31.90112305 C-20.09930726 29.44565907 -21.19235135 28.65048731 -23 27 C-23.12375 26.34 -23.2475 25.68 -23.375 25 C-23.58125 24.34 -23.7875 23.68 -24 23 C-25.2684375 22.3503125 -25.2684375 22.3503125 -26.5625 21.6875 C-27.366875 21.130625 -28.17125 20.57375 -29 20 C-29.40565724 16.21386577 -29.20307987 13.60923962 -28 10 C-27.01 9.67 -26.02 9.34 -25 9 C-25 8.34 -25 7.68 -25 7 C-27.31 6.01 -29.62 5.02 -32 4 C-32 4.66 -32 5.32 -32 6 C-33.32 6.33 -34.64 6.66 -36 7 C-36 5.68 -36 4.36 -36 3 C-33 1 -33 1 -30.625 1.1875 C-27.6955588 2.0942318 -25.48598689 3.20456502 -23 5 C-22.67 5.99 -22.34 6.98 -22 8 C-18.78377123 10.0213863 -18.78377123 10.0213863 -15 11 C-12.07201057 9.84587664 -12.07201057 9.84587664 -10 8 C-10.33 6.02 -10.66 4.04 -11 2 C-6.96815556 -0.9645915 -4.81315994 -1.40383832 0 0 Z " fill="#BBCED1" transform="translate(48,11)"/>
<path d="M0 0 C0.58265625 0.36867188 1.1653125 0.73734375 1.765625 1.1171875 C1.75402344 1.75527344 1.74242187 2.39335937 1.73046875 3.05078125 C1.72144531 3.87707031 1.71242188 4.70335937 1.703125 5.5546875 C1.69152344 6.37839844 1.67992187 7.20210937 1.66796875 8.05078125 C1.53295152 10.10882688 1.53295152 10.10882688 2.765625 11.1171875 C2.83876067 13.64768152 2.85810027 16.15023587 2.828125 18.6796875 C2.82361328 19.39060547 2.81910156 20.10152344 2.81445312 20.83398438 C2.80263364 22.59508763 2.78469763 24.35614786 2.765625 26.1171875 C1.775625 26.1171875 0.785625 26.1171875 -0.234375 26.1171875 C-0.234375 25.1271875 -0.234375 24.1371875 -0.234375 23.1171875 C-2.67933543 21.40007507 -2.67933543 21.40007507 -5.234375 20.1171875 C-6.224375 20.7771875 -7.214375 21.4371875 -8.234375 22.1171875 C-10.921875 21.7421875 -10.921875 21.7421875 -13.234375 21.1171875 C-13.234375 18.8071875 -13.234375 16.4971875 -13.234375 14.1171875 C-10.859375 13.0546875 -10.859375 13.0546875 -8.234375 12.1171875 C-7.574375 12.4471875 -6.914375 12.7771875 -6.234375 13.1171875 C-6.234375 12.4571875 -6.234375 11.7971875 -6.234375 11.1171875 C-7.224375 10.7871875 -8.214375 10.4571875 -9.234375 10.1171875 C-9.234375 7.8071875 -9.234375 5.4971875 -9.234375 3.1171875 C-2.784375 -1.10012019 -2.784375 -1.10012019 0 0 Z " fill="#92A4A8" transform="translate(55.234375,19.8828125)"/>
<path d="M0 0 C0.33 0 0.66 0 1 0 C1 10.56 1 21.12 1 32 C-0.32 32.66 -1.64 33.32 -3 34 C-3.33 33.34 -3.66 32.68 -4 32 C-3.34 31.67 -2.68 31.34 -2 31 C-2 26.38 -2 21.76 -2 17 C-2.66 16.67 -3.32 16.34 -4 16 C-3.67 15.67 -3.34 15.34 -3 15 C-2.76807135 13.48530552 -2.58784762 11.96245438 -2.4375 10.4375 C-2.35371094 9.61121094 -2.26992188 8.78492188 -2.18359375 7.93359375 C-2.12300781 7.29550781 -2.06242187 6.65742188 -2 6 C-3.86966855 5.35771755 -3.86966855 5.35771755 -6 5 C-8.62387135 6.39092892 -8.62387135 6.39092892 -11 8 C-11.66 8 -12.32 8 -13 8 C-12.74438677 10.3431213 -12.40729228 12.67843403 -12 15 C-11.34 15.33 -10.68 15.66 -10 16 C-10 16.66 -10 17.32 -10 18 C-12.31 18.33 -14.62 18.66 -17 19 C-17.33 20.65 -17.66 22.3 -18 24 C-18.226875 23.360625 -18.45375 22.72125 -18.6875 22.0625 C-19.120625 21.381875 -19.55375 20.70125 -20 20 C-21.65 19.67 -23.3 19.34 -25 19 C-25.33 24.28 -25.66 29.56 -26 35 C-26.33 35 -26.66 35 -27 35 C-27.33 29.06 -27.66 23.12 -28 17 C-26.68 17 -25.36 17 -24 17 C-23.67 15.68 -23.34 14.36 -23 13 C-23 14.32 -23 15.64 -23 17 C-18.85906302 17.20970559 -18.85906302 17.20970559 -15 16 C-15 14.02 -15 12.04 -15 10 C-16.32 10.33 -17.64 10.66 -19 11 C-16.01339637 7.5156291 -12.90221073 5.80063207 -8.8046875 3.9296875 C-6.82018034 3.02336415 -6.82018034 3.02336415 -5 1 C-4.67 1.66 -4.34 2.32 -4 3 C-3.01 3.33 -2.02 3.66 -1 4 C-0.67 2.68 -0.34 1.36 0 0 Z " fill="#D7E4E2" transform="translate(59,15)"/>
<path d="M0 0 C4.70588235 0.70588235 4.70588235 0.70588235 6 2 C6.04092937 4.33297433 6.04241723 6.66705225 6 9 C8.475 9.99 8.475 9.99 11 11 C11 13.97 11 16.94 11 20 C10.01 20.33 9.02 20.66 8 21 C8 18.03 8 15.06 8 12 C7.34 12 6.68 12 6 12 C6 15.63 6 19.26 6 23 C5.34 23 4.68 23 4 23 C4 17.06 4 11.12 4 5 C3.34 5 2.68 5 2 5 C2.24556641 5.75023437 2.24556641 5.75023437 2.49609375 6.515625 C3.1878911 9.9263468 3.10504665 13.28735757 3.0625 16.75 C3.05798828 17.44738281 3.05347656 18.14476563 3.04882812 18.86328125 C3.0371002 20.57555803 3.01916653 22.28779033 3 24 C2.34 24.33 1.68 24.66 1 25 C1 24.34 1 23.68 1 23 C0.34 23 -0.32 23 -1 23 C-1.02887512 19.35418313 -1.04675585 15.70839537 -1.0625 12.0625 C-1.07087891 11.02158203 -1.07925781 9.98066406 -1.08789062 8.90820312 C-1.09272461 7.42416992 -1.09272461 7.42416992 -1.09765625 5.91015625 C-1.10289307 4.99371338 -1.10812988 4.07727051 -1.11352539 3.13305664 C-1 1 -1 1 0 0 Z " fill="#214151" transform="translate(34,33)"/>
<path d="M0 0 C0.70125 0.309375 1.4025 0.61875 2.125 0.9375 C5.10114124 2.03737828 7.86829882 2.53357642 11 3 C12.33737094 3.31674575 13.67288808 3.64270064 15 4 C15 4.99 15 5.98 15 7 C13.68 7 12.36 7 11 7 C11 14.92 11 22.84 11 31 C10.34 31 9.68 31 9 31 C8.67 31.66 8.34 32.32 8 33 C8.03480469 31.80761719 8.06960937 30.61523438 8.10546875 29.38671875 C8.13360753 27.82032658 8.1609076 26.25391919 8.1875 24.6875 C8.21263672 23.90181641 8.23777344 23.11613281 8.26367188 22.30664062 C8.27333984 21.54931641 8.28300781 20.79199219 8.29296875 20.01171875 C8.3086792 19.31522217 8.32438965 18.61872559 8.34057617 17.90112305 C7.90052642 15.44473061 6.80841711 14.65159595 5 13 C4.855625 12.319375 4.71125 11.63875 4.5625 10.9375 C4.17549168 8.78826429 4.17549168 8.78826429 1.9375 7.75 C1.298125 7.5025 0.65875 7.255 0 7 C0 4.69 0 2.38 0 0 Z " fill="#6BAAB8" transform="translate(20,25)"/>
<path d="M0 0 C2.875 1.5625 2.875 1.5625 5 3 C5 5.25 5 5.25 4 8 C-0.51189764 11.37046292 -4.44358513 12.12921895 -10 12 C-11.7511573 13.4166747 -11.7511573 13.4166747 -13 15 C-13.66 15 -14.32 15 -15 15 C-14.75 12.625 -14.75 12.625 -14 10 C-11.9375 8.6875 -11.9375 8.6875 -10 8 C-10.33 6.02 -10.66 4.04 -11 2 C-6.96815556 -0.9645915 -4.81315994 -1.40383832 0 0 Z " fill="#4D7B8A" transform="translate(48,11)"/>
<path d="M0 0 C0.33 0.99 0.66 1.98 1 3 C3.01508358 3.73323796 3.01508358 3.73323796 5 4 C4.67 4.33 4.34 4.66 4 5 C4.33 5.66 4.66 6.32 5 7 C4.91089842 9.55807762 4.76705754 12.0762601 4.5625 14.625 C4.51029297 15.33140625 4.45808594 16.0378125 4.40429688 16.765625 C4.27458793 18.51079987 4.13795046 20.25545725 4 22 C1.01846022 22.91102604 -0.42672394 23.27006372 -3.296875 21.91796875 C-5.61307503 19.30958753 -5.41166285 17.74783561 -5.25 14.3125 C-5.21390625 13.31863281 -5.1778125 12.32476562 -5.140625 11.30078125 C-5.09421875 10.54152344 -5.0478125 9.78226563 -5 9 C-3.35 8.34 -1.7 7.68 0 7 C0 4.69 0 2.38 0 0 Z " fill="#9BA8AA" transform="translate(24,35)"/>
<path d="M0 0 C8.79411765 4.73529412 8.79411765 4.73529412 11 8 C11.32035235 11.0302181 11.23339726 13.96583558 11 17 C10.0925 16.505 9.185 16.01 8.25 15.5 C4.99126962 13.72062788 4.99126962 13.72062788 1 14 C0.01 13.34 -0.98 12.68 -2 12 C-2.1875 8.875 -2.1875 8.875 -2 6 C-1.67 6 -1.34 6 -1 6 C-0.67 4.02 -0.34 2.04 0 0 Z " fill="#9BB3B7" transform="translate(7,35)"/>
<path d="M0 0 C0.99 0 1.98 0 3 0 C3 0.66 3 1.32 3 2 C3.94875 2.28875 4.8975 2.5775 5.875 2.875 C9 4 9 4 11 6 C8.8125 7.5625 8.8125 7.5625 6 9 C4.33178677 8.67449498 2.66500443 8.34153937 1 8 C0.0409375 8.7425 0.0409375 8.7425 -0.9375 9.5 C-3 11 -3 11 -6.0625 10.875 C-8.98716045 10.00382455 -10.15234037 9.36089842 -12 7 C-11.01 6.67 -10.02 6.34 -9 6 C-8.67 5.01 -8.34 4.02 -8 3 C-2.25 1.875 -2.25 1.875 0 3 C0 2.01 0 1.02 0 0 Z " fill="#2D4E5B" transform="translate(31,3)"/>
<path d="M0 0 C0.33 0 0.66 0 1 0 C1.33 7.26 1.66 14.52 2 22 C2.99 22.33 3.98 22.66 5 23 C5.02705308 20.58325776 5.04686438 18.1668206 5.0625 15.75 C5.07087891 15.06808594 5.07925781 14.38617188 5.08789062 13.68359375 C5.10428392 10.30657446 5.05628768 7.22708361 4 4 C5.32 4 6.64 4 8 4 C7.67 9.94 7.34 15.88 7 22 C7.99 21.67 8.98 21.34 10 21 C8.95902262 23.7443949 8.02715813 24.9787139 5.6875 26.8125 C2.46403695 28.23682088 1.29238393 28.15233437 -2 27 C-4.8125 25.4375 -4.8125 25.4375 -7 24 C-6.401875 23.855625 -5.80375 23.71125 -5.1875 23.5625 C-3.43849596 23.1127561 -1.71322977 22.57107659 0 22 C0 14.74 0 7.48 0 0 Z " fill="#B6BEBC" transform="translate(31,34)"/>
<path d="M0 0 C7.8125 0 7.8125 0 11 3 C11.43561711 5.79566932 11.23403858 8.14472937 11 11 C9.68 10.67 8.36 10.34 7 10 C7 8.35 7 6.7 7 5 C6.01 5 5.02 5 4 5 C3.67 5.99 3.34 6.98 3 8 C3.99 8.33 4.98 8.66 6 9 C7.1875 11.0625 7.1875 11.0625 8 13 C7.01 14.485 7.01 14.485 6 16 C4.02 15.34 2.04 14.68 0 14 C0 9.38 0 4.76 0 0 Z " fill="#264D5D" transform="translate(7,20)"/>
<path d="M0 0 C0.99 0.33 1.98 0.66 3 1 C3 8.26 3 15.52 3 23 C2.34 23 1.68 23 1 23 C0.67 23.66 0.34 24.32 0 25 C0.03480469 23.80761719 0.06960937 22.61523438 0.10546875 21.38671875 C0.13360753 19.82032658 0.1609076 18.25391919 0.1875 16.6875 C0.21263672 15.90181641 0.23777344 15.11613281 0.26367188 14.30664062 C0.27333984 13.54931641 0.28300781 12.79199219 0.29296875 12.01171875 C0.3086792 11.31522217 0.32438965 10.61872559 0.34057617 9.90112305 C-0.09813543 7.45220028 -1.22401853 6.66979424 -3 5 C-2.8125 2.875 -2.8125 2.875 -2 1 C-1.34 0.67 -0.68 0.34 0 0 Z " fill="#335A6E" transform="translate(28,33)"/>
<path d="M0 0 C0.33 0.99 0.66 1.98 1 3 C0.34 3.66 -0.32 4.32 -1 5 C-0.67 5.66 -0.34 6.32 0 7 C-1.36125 6.9690625 -1.36125 6.9690625 -2.75 6.9375 C-5.42672588 6.9889755 -7.46988052 7.2215017 -10 8 C-10 8.66 -10 9.32 -10 10 C-11.65 10 -13.3 10 -15 10 C-15 10.99 -15 11.98 -15 13 C-13.02 13.495 -13.02 13.495 -11 14 C-11.99 14 -12.98 14 -14 14 C-13.67 17.63 -13.34 21.26 -13 25 C-13.99 25.66 -14.98 26.32 -16 27 C-16 21.06 -16 15.12 -16 9 C-10.72 6.03 -5.44 3.06 0 0 Z " fill="#DFEEEE" transform="translate(21,6)"/>
<path d="M0 0 C1.32 0.66 2.64 1.32 4 2 C4.22893082 5.03333332 4.34883468 7.97318834 4 11 C2.1875 13.0625 2.1875 13.0625 0 14 C-0.99 14 -1.98 14 -3 14 C-2.1875 12.0625 -2.1875 12.0625 -1 10 C-0.01 9.67 0.98 9.34 2 9 C1.67 8.01 1.34 7.02 1 6 C0.01 6 -0.98 6 -2 6 C-2 7.32 -2 8.64 -2 10 C-3.32 9.67 -4.64 9.34 -6 9 C-6.375 6.75 -6.375 6.75 -6 4 C-3 1.6875 -3 1.6875 0 0 Z " fill="#203645" transform="translate(53,19)"/>
<path d="M0 0 C2.9294412 0.9067318 5.13901311 2.01706502 7.625 3.8125 C7.955 4.8025 8.285 5.7925 8.625 6.8125 C10.28448148 7.82437895 11.95080562 8.8251546 13.625 9.8125 C13.625 10.4725 13.625 11.1325 13.625 11.8125 C12.84125 11.6475 12.0575 11.4825 11.25 11.3125 C8.74291961 10.7501293 8.74291961 10.7501293 6.625 10.8125 C5.305 10.8125 3.985 10.8125 2.625 10.8125 C2.625 10.1525 2.625 9.4925 2.625 8.8125 C3.615 8.4825 4.605 8.1525 5.625 7.8125 C5.625 7.1525 5.625 6.4925 5.625 5.8125 C3.315 4.8225 1.005 3.8325 -1.375 2.8125 C-1.375 3.4725 -1.375 4.1325 -1.375 4.8125 C-2.695 5.1425 -4.015 5.4725 -5.375 5.8125 C-5.375 4.4925 -5.375 3.1725 -5.375 1.8125 C-2.375 -0.1875 -2.375 -0.1875 0 0 Z " fill="#21414F" transform="translate(17.375,12.1875)"/>
<path d="M0 0 C0.33 1.32 0.66 2.64 1 4 C2.32 3.67 3.64 3.34 5 3 C5 2.34 5 1.68 5 1 C7.92879371 1.62759865 10.36095629 2.58622659 13 4 C12.67 4.99 12.34 5.98 12 7 C7.76674194 8.18594057 4.89604576 7.71869389 0.6875 6.5625 C-0.38113281 6.27503906 -1.44976562 5.98757812 -2.55078125 5.69140625 C-3.35902344 5.46324219 -4.16726562 5.23507813 -5 5 C-5 4.01 -5 3.02 -5 2 C-3.35 2 -1.7 2 0 2 C0 1.34 0 0.68 0 0 Z " fill="#71A0AC" transform="translate(11,14)"/>
<path d="M0 0 C1.98 0.99 3.96 1.98 6 3 C6 5.97 6 8.94 6 12 C5.01 12.33 4.02 12.66 3 13 C3 10.03 3 7.06 3 4 C2.34 4 1.68 4 1 4 C1 7.63 1 11.26 1 15 C0.34 15 -0.32 15 -1 15 C-1.02685412 12.68756208 -1.04632841 10.3750373 -1.0625 8.0625 C-1.07410156 6.77472656 -1.08570313 5.48695312 -1.09765625 4.16015625 C-1 1 -1 1 0 0 Z " fill="#24384A" transform="translate(39,41)"/>
<path d="M0 0 C2.6875 0.875 2.6875 0.875 5 2 C5.1875 4.875 5.1875 4.875 5 8 C2 10 2 10 -0.6875 9.625 C-1.450625 9.41875 -2.21375 9.2125 -3 9 C-3.1875 5.625 -3.1875 5.625 -3 2 C-2.01 1.34 -1.02 0.68 0 0 Z " fill="#258CA1" transform="translate(45,32)"/>
<path d="M0 0 C2.5 1.1875 2.5 1.1875 5 3 C5.4375 5.5625 5.4375 5.5625 5 8 C4.34 8.66 3.68 9.32 3 10 C-1.55555556 9.44444444 -1.55555556 9.44444444 -3 8 C-3.25 5.0625 -3.25 5.0625 -3 2 C-2.01 1.34 -1.02 0.68 0 0 Z " fill="#2AB8D0" transform="translate(18,32)"/>
<path d="M0 0 C2 2 2 2 2.1953125 5.4765625 C2.18201493 6.85950968 2.15816232 8.24238654 2.125 9.625 C2.11597656 10.33140625 2.10695313 11.0378125 2.09765625 11.765625 C2.07407603 13.51056098 2.03820461 15.25532295 2 17 C1.34 17 0.68 17 0 17 C0 13.37 0 9.74 0 6 C-0.66 6 -1.32 6 -2 6 C-2 8.97 -2 11.94 -2 15 C-2.66 14.67 -3.32 14.34 -4 14 C-4 11.03 -4 8.06 -4 5 C-2.68 4.34 -1.36 3.68 0 3 C0 2.01 0 1.02 0 0 Z " fill="#293E50" transform="translate(24,39)"/>
<path d="M0 0 C0.99 0 1.98 0 3 0 C4.90427108 9.13029973 5.22823248 17.71854592 5 27 C3.02 27.99 3.02 27.99 1 29 C0.67 28.34 0.34 27.68 0 27 C0.66 26.67 1.32 26.34 2 26 C2 21.38 2 16.76 2 12 C1.34 11.67 0.68 11.34 0 11 C0.33 10.67 0.66 10.34 1 10 C1.23192865 8.48530552 1.41215238 6.96245438 1.5625 5.4375 C1.64628906 4.61121094 1.73007812 3.78492188 1.81640625 2.93359375 C1.87699219 2.29550781 1.93757813 1.65742188 2 1 C1.34 0.67 0.68 0.34 0 0 Z " fill="#BECACA" transform="translate(55,20)"/>
<path d="M0 0 C0.33 1.65 0.66 3.3 1 5 C-3.625 8 -3.625 8 -7 8 C-7 5.36 -7 2.72 -7 0 C-4.3333581 -1.33332095 -2.83319697 -0.67102033 0 0 Z " fill="#293B4C" transform="translate(53,43)"/>
<path d="M0 0 C0 2.97 0 5.94 0 9 C-2.64 7.68 -5.28 6.36 -8 5 C-7.625 2.5625 -7.625 2.5625 -7 0 C-4.3333581 -1.33332095 -2.83319697 -0.67102033 0 0 Z " fill="#375567" transform="translate(18,43)"/>
<path d="M0 0 C0.1875 3.375 0.1875 3.375 0 7 C-3 9 -3 9 -6.1875 8.625 C-7.5796875 8.315625 -7.5796875 8.315625 -9 8 C-8.9375 6.25 -8.9375 6.25 -8 4 C-2.5 0 -2.5 0 0 0 Z " fill="#213C48" transform="translate(45,24)"/>
<path d="M0 0 C0.99 0.66 1.98 1.32 3 2 C3 2.66 3 3.32 3 4 C0.24075815 5.80411967 -0.88972103 6.0127245 -4.25 5.625 C-5.1575 5.41875 -6.065 5.2125 -7 5 C-7.33 3.68 -7.66 2.36 -8 1 C-4.93240944 -0.8624657 -3.38040761 -1.30854488 0 0 Z " fill="#299AAA" transform="translate(35,14)"/>
<path d="M0 0 C0.99 0.33 1.98 0.66 3 1 C2.67 1.99 2.34 2.98 2 4 C2.99 4.33 3.98 4.66 5 5 C6.1875 7.0625 6.1875 7.0625 7 9 C6.01 10.485 6.01 10.485 5 12 C3.02 11.34 1.04 10.68 -1 10 C-0.67 6.7 -0.34 3.4 0 0 Z " fill="#2B5C6D" transform="translate(8,24)"/>
<path d="M0 0 C-0.598125 0.433125 -1.19625 0.86625 -1.8125 1.3125 C-3.70783087 2.77461239 -5.3528593 4.27050227 -7 6 C-5.68 6.33 -4.36 6.66 -3 7 C-3.33 7.66 -3.66 8.32 -4 9 C-5.65 8.67 -7.3 8.34 -9 8 C-9.66 6.02 -10.32 4.04 -11 2 C-6.97107804 -0.96244261 -4.82799816 -1.2350693 0 0 Z " fill="#ACBABB" transform="translate(48,11)"/>
<path d="M0 0 C2.92497943 1.12499209 5.67501588 2.45989221 8.4375 3.9375 C8.1075 4.5975 7.7775 5.2575 7.4375 5.9375 C5.4575 5.2775 3.4775 4.6175 1.4375 3.9375 C1.4375 3.2775 1.4375 2.6175 1.4375 1.9375 C0.4475 1.9375 -0.5425 1.9375 -1.5625 1.9375 C-1.5625 2.9275 -1.5625 3.9175 -1.5625 4.9375 C-4.2025 5.2675 -6.8425 5.5975 -9.5625 5.9375 C-9.5625 5.2775 -9.5625 4.6175 -9.5625 3.9375 C-3.35096154 -0.08173077 -3.35096154 -0.08173077 0 0 Z " fill="#E4EDED" transform="translate(32.5625,1.0625)"/>
<path d="M0 0 C0.33 0 0.66 0 1 0 C1.33 7.26 1.66 14.52 2 22 C2.66 22.33 3.32 22.66 4 23 C3.34 23.99 2.68 24.98 2 26 C1.01 25.67 0.02 25.34 -1 25 C-1.33 24.01 -1.66 23.02 -2 22 C-1.34 22 -0.68 22 0 22 C0 14.74 0 7.48 0 0 Z " fill="#7A8E97" transform="translate(31,34)"/>
<path d="M0 0 C0.66 0.66 1.32 1.32 2 2 C0.35 2.66 -1.3 3.32 -3 4 C-3 7.63 -3 11.26 -3 15 C-5.64 13.68 -8.28 12.36 -11 11 C-10.67 10.01 -10.34 9.02 -10 8 C-8.35 8.99 -6.7 9.98 -5 11 C-4.67 8.36 -4.34 5.72 -4 3 C-4.66 2.67 -5.32 2.34 -6 2 C-4.02 1.34 -2.04 0.68 0 0 Z " fill="#B7C4C1" transform="translate(22,40)"/>
<path d="M0 0 C0.33 0 0.66 0 1 0 C1 4.95 1 9.9 1 15 C0.01 15.495 0.01 15.495 -1 16 C-1 15.34 -1 14.68 -1 14 C-1.66 13.67 -2.32 13.34 -3 13 C-2.88557539 11.39504433 -2.75805306 9.79101881 -2.625 8.1875 C-2.55539063 7.29417969 -2.48578125 6.40085937 -2.4140625 5.48046875 C-2 3 -2 3 0 0 Z " fill="#4A6879" transform="translate(36,42)"/>
<path d="M0 0 C3.465 1.485 3.465 1.485 7 3 C5.02579865 5.52259061 4.03254358 5.9929808 0.8125 6.6875 C-0.5796875 6.8421875 -0.5796875 6.8421875 -2 7 C-2.125 4.625 -2.125 4.625 -2 2 C-1.34 1.34 -0.68 0.68 0 0 Z " fill="#2E4D5A" transform="translate(35,5)"/>
<path d="M0 0 C2.9719385 1.12451727 5.33440687 2.22293791 8 4 C8 4.99 8 5.98 8 7 C5.36 6.67 2.72 6.34 0 6 C0 4.02 0 2.04 0 0 Z " fill="#1A3744" transform="translate(20,25)"/>
<path d="M0 0 C0.33 0 0.66 0 1 0 C1 5.61 1 11.22 1 17 C-1.35333796 12.29332409 -1.17102038 10.1306114 -1 5 C-2.65 4.67 -4.3 4.34 -6 4 C-5.67 3.01 -5.34 2.02 -5 1 C-4.67 1.66 -4.34 2.32 -4 3 C-3.01 3.33 -2.02 3.66 -1 4 C-0.67 2.68 -0.34 1.36 0 0 Z " fill="#E6EFED" transform="translate(59,15)"/>
<path d="M0 0 C0 0.66 0 1.32 0 2 C-1.3921875 1.9071875 -1.3921875 1.9071875 -2.8125 1.8125 C-5.97943248 1.67622737 -5.97943248 1.67622737 -7.75 3.5 C-8.1625 3.995 -8.575 4.49 -9 5 C-9.66 5 -10.32 5 -11 5 C-10.52034261 0.44325482 -10.52034261 0.44325482 -8.3125 -1.4375 C-5.07768067 -2.22434795 -3.02223517 -1.23636893 0 0 Z " fill="#1F3F4E" transform="translate(44,21)"/>
<path d="M0 0 C0.33 1.32 0.66 2.64 1 4 C-1.31 3.34 -3.62 2.68 -6 2 C-6 2.66 -6 3.32 -6 4 C-7.65 4.33 -9.3 4.66 -11 5 C-10.03558469 2.58896173 -9.31202953 1.22595242 -7.1875 -0.3125 C-4.45808824 -1.17031512 -2.72321308 -0.75644808 0 0 Z " fill="#21303B" transform="translate(51,13)"/>
<path d="M0 0 C2.63662075 0.85690174 3.75689748 1.70242853 5.5 3.8125 C3.19 3.4825 0.88 3.1525 -1.5 2.8125 C-1.5 3.4725 -1.5 4.1325 -1.5 4.8125 C-2.82 5.1425 -4.14 5.4725 -5.5 5.8125 C-5.5 4.4925 -5.5 3.1725 -5.5 1.8125 C-2.5 -0.1875 -2.5 -0.1875 0 0 Z " fill="#273C47" transform="translate(17.5,12.1875)"/>
<path d="M0 0 C1.15629692 1.15629692 2.30606121 2.31936822 3.4375 3.5 C5.13313447 5.21591626 5.13313447 5.21591626 8 7 C4.2983569 7.94693195 2.60887535 8.30443767 -0.875 6.5625 C-1.57625 6.046875 -2.2775 5.53125 -3 5 C-2.67 4.34 -2.34 3.68 -2 3 C-1.34 3 -0.68 3 0 3 C0 2.01 0 1.02 0 0 Z " fill="#7D8C91" transform="translate(22,6)"/>
<path d="M0 0 C1.9453125 0.77734375 1.9453125 0.77734375 4.125 1.9375 C5.21167969 2.50791016 5.21167969 2.50791016 6.3203125 3.08984375 C6.87460937 3.39019531 7.42890625 3.69054687 8 4 C7.67 5.32 7.34 6.64 7 8 C5.68 7.67 4.36 7.34 3 7 C2.87625 6.071875 2.87625 6.071875 2.75 5.125 C2.18741541 2.81562433 2.18741541 2.81562433 -0.0625 1.75 C-0.701875 1.5025 -1.34125 1.255 -2 1 C-1.34 0.67 -0.68 0.34 0 0 Z " fill="#9FC1CC" transform="translate(51,11)"/>
<path d="M0 0 C1.65 0 3.3 0 5 0 C4.01 0.33 3.02 0.66 2 1 C2.33 4.63 2.66 8.26 3 12 C2.01 12.66 1.02 13.32 0 14 C0 9.38 0 4.76 0 0 Z " fill="#ECF5F0" transform="translate(5,19)"/>
<path d="M0 0 C2.9375 0.75 2.9375 0.75 6 2 C6.3721042 3.32303717 6.70630173 4.65737935 7 6 C9.49034386 7.29660434 9.49034386 7.29660434 12 8 C11.01 8.66 10.02 9.32 9 10 C4.125 7.375 4.125 7.375 3 4 C1.00334686 2.31461399 1.00334686 2.31461399 -1 1 C-0.67 0.67 -0.34 0.34 0 0 Z " fill="#BFD3D5" transform="translate(21,12)"/>
<path d="M0 0 C0.33 0.66 0.66 1.32 1 2 C3.32156597 2.40729228 5.6568787 2.74438677 8 3 C8 3.66 8 4.32 8 5 C7.01 5.33 6.02 5.66 5 6 C4.01 5.34 3.02 4.68 2 4 C1.67 5.98 1.34 7.96 1 10 C0.34 9.67 -0.32 9.34 -1 9 C-1.09765625 2.84765625 -1.09765625 2.84765625 -1 1 C-0.67 0.67 -0.34 0.34 0 0 Z " fill="#CCD6D1" transform="translate(6,32)"/>
<path d="M0 0 C0.99 0.33 1.98 0.66 3 1 C3.25 3.3125 3.25 3.3125 3 6 C1.1875 7.8125 1.1875 7.8125 -1 9 C-1.99 9 -2.98 9 -4 9 C-3.1875 7.0625 -3.1875 7.0625 -2 5 C-1.01 4.67 -0.02 4.34 1 4 C0.67 2.68 0.34 1.36 0 0 Z " fill="#254051" transform="translate(54,24)"/>
<path d="M0 0 C1.98 0.99 3.96 1.98 6 3 C5.67 4.32 5.34 5.64 5 7 C3.35 6.67 1.7 6.34 0 6 C0 4.02 0 2.04 0 0 Z " fill="#233442" transform="translate(7,35)"/>
<path d="M0 0 C3.465 1.485 3.465 1.485 7 3 C7 3.99 7 4.98 7 6 C2.78087253 5.5205537 0.20336822 4.83374881 -3 2 C-2.01 2 -1.02 2 0 2 C0 1.34 0 0.68 0 0 Z " fill="#3698AD" transform="translate(24,21)"/>
<path d="M0 0 C0.28875 0.61875 0.5775 1.2375 0.875 1.875 C1.93720042 4.13325765 1.93720042 4.13325765 4 6 C0.79937313 7.60031344 -1.72271806 6.03173691 -5 5 C-5 4.01 -5 3.02 -5 2 C-3.35 2 -1.7 2 0 2 C0 1.34 0 0.68 0 0 Z " fill="#8BB4BB" transform="translate(11,14)"/>
<path d="M0 0 C2 2 2 2 2.125 4.625 C2.08375 5.40875 2.0425 6.1925 2 7 C1.67 7 1.34 7 1 7 C0.67 9.97 0.34 12.94 0 16 C-0.33 16 -0.66 16 -1 16 C-1.02685095 13.52076199 -1.04676547 11.0418116 -1.0625 8.5625 C-1.07506836 7.50192383 -1.07506836 7.50192383 -1.08789062 6.41992188 C-1.09653588 4.61306441 -1.05220011 2.80612397 -1 1 C-0.67 0.67 -0.34 0.34 0 0 Z " fill="#264F65" transform="translate(34,39)"/>
<path d="M0 0 C0 1.65 0 3.3 0 5 C-3.75 6.125 -3.75 6.125 -6 5 C-6 4.01 -6 3.02 -6 2 C-2.25 0 -2.25 0 0 0 Z " fill="#223445" transform="translate(57,36)"/>
<path d="M0 0 C0.33 0.99 0.66 1.98 1 3 C-2 5 -2 5 -5.1875 4.625 C-6.115625 4.41875 -7.04375 4.2125 -8 4 C-7.67 3.01 -7.34 2.02 -7 1 C-6.67 1.33 -6.34 1.66 -6 2 C-4.02 1.34 -2.04 0.68 0 0 Z " fill="#2E7689" transform="translate(44,28)"/>
<path d="M0 0 C1.98 0.495 1.98 0.495 4 1 C4 3.31 4 5.62 4 8 C2.35 6.68 0.7 5.36 -1 4 C-0.67 2.68 -0.34 1.36 0 0 Z " fill="#B6C2C4" transform="translate(11,24)"/>
<path d="M0 0 C0.721875 0.268125 1.44375 0.53625 2.1875 0.8125 C-2.12019231 4.75096154 -2.12019231 4.75096154 -5.625 5.0625 C-6.346875 4.98 -7.06875 4.8975 -7.8125 4.8125 C-3.50480769 -0.23365385 -3.50480769 -0.23365385 0 0 Z " fill="#3C9BAF" transform="translate(40.8125,22.1875)"/>
<path d="M0 0 C4.75 0.75 4.75 0.75 7 3 C6.67 3.66 6.34 4.32 6 5 C4.02 4.34 2.04 3.68 0 3 C0 2.01 0 1.02 0 0 Z " fill="#71828B" transform="translate(7,31)"/>
<path d="M0 0 C0.66 0 1.32 0 2 0 C2 3.63 2 7.26 2 11 C1.01 11 0.02 11 -1 11 C-1 9.35 -1 7.7 -1 6 C-0.34 6 0.32 6 1 6 C0.67 4.02 0.34 2.04 0 0 Z " fill="#537183" transform="translate(56,35)"/>
<path d="M0 0 C0.99 0.33 1.98 0.66 3 1 C3 2.98 3 4.96 3 7 C2.01 7.33 1.02 7.66 0 8 C0 5.36 0 2.72 0 0 Z " fill="#314759" transform="translate(42,46)"/>
<path d="M0 0 C1.65 0.99 3.3 1.98 5 3 C4.01 3 3.02 3 2 3 C-1.11332248 3.66868314 -1.11332248 3.66868314 -2.1875 6.0625 C-2.455625 6.701875 -2.72375 7.34125 -3 8 C-3.1875 5.125 -3.1875 5.125 -3 2 C-2.01 1.34 -1.02 0.68 0 0 Z " fill="#2B4A5C" transform="translate(18,32)"/>
<path d="M0 0 C0.33 0 0.66 0 1 0 C1 1.65 1 3.3 1 5 C2.65 5 4.3 5 6 5 C4.6875 6.5 4.6875 6.5 3 8 C2.01 8 1.02 8 0 8 C0 5.36 0 2.72 0 0 Z " fill="#52616B" transform="translate(46,43)"/>
<path d="M0 0 C0.556875 0.226875 1.11375 0.45375 1.6875 0.6875 C-2.74326923 3.76442308 -2.74326923 3.76442308 -5.625 3.375 C-6.4603125 3.0346875 -6.4603125 3.0346875 -7.3125 2.6875 C-2.88173077 -0.38942308 -2.88173077 -0.38942308 0 0 Z " fill="#35444D" transform="translate(44.3125,10.3125)"/>
<path d="M0 0 C1.65 0.33 3.3 0.66 5 1 C5 1.66 5 2.32 5 3 C3.02 3.33 1.04 3.66 -1 4 C-0.67 2.68 -0.34 1.36 0 0 Z " fill="#1E2634" transform="translate(48,42)"/>
<path d="M0 0 C1.65 0.33 3.3 0.66 5 1 C5 1.99 5 2.98 5 4 C2.03 3.505 2.03 3.505 -1 3 C-0.67 2.01 -0.34 1.02 0 0 Z " fill="#1A2733" transform="translate(13,42)"/>
<path d="M0 0 C0.99 0.33 1.98 0.66 3 1 C3 2.32 3 3.64 3 5 C1.68 4.67 0.36 4.34 -1 4 C-0.67 2.68 -0.34 1.36 0 0 Z " fill="#A9B8BB" transform="translate(36,37)"/>
<path d="M0 0 C0.99 0.33 1.98 0.66 3 1 C2.67 1.99 2.34 2.98 2 4 C0.35 4.33 -1.3 4.66 -3 5 C-2.625 3.0625 -2.625 3.0625 -2 1 C-1.34 0.67 -0.68 0.34 0 0 Z " fill="#16323F" transform="translate(28,33)"/>
<path d="M0 0 C3.35595828 0.59927826 5.37801226 1.84622436 8 4 C5.36 3.67 2.72 3.34 0 3 C0 2.01 0 1.02 0 0 Z " fill="#197089" transform="translate(20,28)"/>
<path d="M0 0 C2.125 0.9375 2.125 0.9375 4 2 C3.01 2 2.02 2 1 2 C1 2.66 1 3.32 1 4 C-0.65 4.33 -2.3 4.66 -4 5 C-2.25 1.125 -2.25 1.125 0 0 Z " fill="#293B46" transform="translate(44,13)"/>
<path d="M0 0 C0.99 0 1.98 0 3 0 C3.33 0.99 3.66 1.98 4 3 C3.01 3.495 3.01 3.495 2 4 C0.86649466 6.01669827 0.86649466 6.01669827 0 8 C-0.79953138 4.71303767 -1.09658936 3.28976808 0 0 Z " fill="#7995A1" transform="translate(31,3)"/>
</svg>
